<svg xmlns="http://www.w3.org/2000/svg" viewBox="0 0 972.88 176.57"><style>.Arched_x0020_Green{fill:url(#SVGID_1_);stroke:#fff;stroke-width:.25;stroke-miterlimit:1}.st0{display:none}.st1{opacity:.2;fill:#6fc9c2}.st2{fill:#5dc2aa}.st3{fill:#6fc9c3}.st4{fill:#072b20}</style><linearGradient id="SVGID_1_" gradientUnits="userSpaceOnUse" x1="-6.561" y1="580.561" x2="-5.854" y2="579.854"><stop offset="0" stop-color="#21ac4b"/><stop offset=".983" stop-color="#19361b"/></linearGradient><text transform="matrix(1 0 0 1.1 292.193 242.307)" fill="#313333" font-family="BrandonGrotesque-Light" font-size="34.244" letter-spacing="2" id="tagline" class="st0">Diamonds created for you</text><g id="Symbol"><path class="st1" d="M126.13 21.8l23.56-19.4h54.18l45.01 60.28-122.75 111.43V133.1l81.78-74.45-19.42-24.6-29.52.03-32.84 24.57z"/><path class="st2" d="M126.13 21.78l-23.57-19.4H48.38l-45 60.27 122.75 111.44v-41.01L44.35 58.63l19.42-24.6 29.51.03 32.85 24.57z"/><path class="st3" d="M126.13 21.78L149.69 2.4h1.91l.17 37.07-25.64 19.16z"/></g><path class="st4" d="M179.9 135.07c0 19.84.54 28.48 2.97 30.91 2.16 2.16 5.67 3.1 16.2 3.1 7.15 0 13.09-.13 16.33-4.05 1.75-2.16 3.1-5.53 3.51-8.1.14-1.08.41-1.75 1.21-1.75.68 0 .81.54.81 2.03 0 1.48-.94 9.58-2.02 13.5-.94 3.1-1.35 3.64-8.5 3.64-9.72 0-16.74-.27-22.41-.4-5.67-.27-9.85-.41-13.77-.41-.54 0-2.83.13-5.53.13-2.7.13-5.67.27-7.69.27-1.48 0-2.16-.27-2.16-1.08 0-.41.27-.81 1.08-.81 1.22 0 2.83-.27 4.05-.54 2.7-.54 3.37-3.51 3.91-7.42.67-5.67.67-16.33.67-29.29v-23.76c0-21.06 0-24.84-.27-29.16-.27-4.59-1.35-6.75-5.8-7.69-1.08-.27-3.37-.4-4.59-.4-.54 0-1.08-.27-1.08-.81 0-.81.67-1.08 2.16-1.08 6.07 0 14.58.4 15.25.4.68 0 10.53-.4 14.58-.4 1.48 0 2.16.27 2.16 1.08 0 .54-.54.81-1.08.81-.95 0-2.83.13-4.46.4-3.92.67-4.99 2.97-5.26 7.69-.27 4.32-.27 8.1-.27 29.16v24.03zm78.37-34.33c1.2-3.3 1.6-3.9 2.2-3.9.6 0 1 .5 2.2 3.6 1.5 3.8 17.2 45.1 23.3 60.3 3.6 8.9 6.5 10.5 8.6 11.1 1.5.5 3 .6 4 .6.6 0 1 .1 1 .6 0 .6-.9.8-2 .8-1.5 0-8.8 0-15.7-.2-1.9-.1-3-.1-3-.7 0-.4.3-.6.7-.7.6-.2 1.2-1.1.6-2.7l-9.3-24.6c-.2-.4-.4-.6-.9-.6h-21.5c-.5 0-.8.3-1 .8l-6 17.7c-.9 2.5-1.4 4.9-1.4 6.7 0 2 2.1 2.9 3.8 2.9h1c.7 0 1 .2 1 .6 0 .6-.6.8-1.5.8-2.4 0-6.7-.3-7.8-.3s-6.6.3-11.3.3c-1.3 0-1.9-.2-1.9-.8 0-.4.4-.6.9-.6.7 0 2.1-.1 2.9-.2 4.6-.6 6.6-4.4 8.4-9.4l22.7-62.1zm10.4 40c.5 0 .5-.3.4-.7l-9.5-27c-.5-1.5-1-1.5-1.5 0l-8.8 27c-.2.5 0 .7.3.7h19.1zm62.63-29.7c0-21.06 0-24.84-.27-29.16-.27-4.59-1.35-6.75-5.8-7.69-1.08-.27-3.37-.4-4.59-.4-.54 0-1.08-.27-1.08-.81 0-.81.67-1.08 2.16-1.08 6.07 0 14.58.4 15.25.4 3.24 0 8.5-.4 14.71-.4 22.14 0 27 13.5 27 20.25 0 11.07-6.34 17.68-12.69 24.3 9.99 3.1 23.35 12.69 23.35 28.48 0 14.44-11.34 29.43-34.42 29.43-1.48 0-5.8-.27-9.72-.4-3.92-.27-7.69-.41-8.23-.41-.27 0-2.56 0-5.4.13-2.7 0-5.8.27-7.83.27-1.48 0-2.16-.27-2.16-1.08 0-.41.27-.81 1.08-.81 1.22 0 2.83-.27 4.05-.54 2.7-.54 3.37-3.51 3.91-7.42.67-5.67.67-16.33.67-29.29v-23.77zm10.8 2.97c0 .94.27 1.21.94 1.48.81.13 3.24.54 8.23.54 7.56 0 9.45-.27 12.28-3.51 2.83-3.24 4.86-8.1 4.86-13.63 0-11.21-4.99-23.22-18.22-23.22-1.48 0-4.32.14-6.48.67-1.22.27-1.62.68-1.62 1.49v36.18zm0 14.31c0 10.4 0 27.13.13 29.16.41 6.62.41 8.5 4.59 10.53 3.65 1.75 9.45 2.03 11.88 2.03 7.29 0 19.03-3.92 19.03-19.17 0-8.1-2.7-19.84-13.09-27-4.59-3.11-7.96-3.51-11.2-3.92-1.75-.27-8.5-.27-10.53-.27-.54 0-.81.27-.81.95v7.69zm67.21-1.08c0-15.6 0-18.4-.2-21.6-.2-3.4-1-5-4.3-5.7-.8-.2-2.5-.3-3.4-.3-.4 0-.8-.2-.8-.6 0-.6.5-.8 1.6-.8 4.5 0 10.8.3 11.3.3 1.1 0 8.7-.3 11.8-.3 6.3 0 13 .6 18.3 4.4 2.5 1.8 6.9 6.7 6.9 13.6 0 7.4-3.1 14.8-12.1 23.1 8.2 10.5 15 19.4 20.8 25.6 5.4 5.7 9.7 6.8 12.2 7.2 1.9.3 3.3.3 3.9.3.5 0 .9.3.9.6 0 .6-.6.8-2.4.8h-7.1c-5.6 0-8.1-.5-10.7-1.9-4.3-2.3-7.8-7.2-13.5-14.7-4.2-5.5-8.9-12.2-10.9-14.8-.4-.4-.7-.6-1.3-.6l-12.3-.2c-.5 0-.7.3-.7.8v2.4c0 9.6 0 17.5.5 21.7.3 2.9.9 5.1 3.9 5.5 1.4.2 3.6.4 4.5.4.6 0 .8.3.8.6 0 .5-.5.8-1.6.8-5.5 0-11.8-.3-12.3-.3-.1 0-6.4.3-9.4.3-1.1 0-1.6-.2-1.6-.8 0-.3.2-.6.8-.6.9 0 2.1-.2 3-.4 2-.4 2.5-2.6 2.9-5.5.5-4.2.5-12.1.5-21.7v-17.6zm8 8.7c0 .5.2.9.7 1.2 1.5.9 6.1 1.6 10.5 1.6 2.4 0 5.2-.3 7.5-1.9 3.5-2.4 6.1-7.8 6.1-15.4 0-12.5-6.6-20-17.3-20-3 0-5.7.3-6.7.6-.5.2-.8.6-.8 1.2v32.7zm77 8.9c0 9.6 0 17.5.5 21.7.3 2.9.9 5.1 3.9 5.5 1.4.2 3.6.4 4.5.4.6 0 .8.3.8.6 0 .5-.5.8-1.6.8-5.5 0-11.8-.3-12.3-.3s-6.8.3-9.8.3c-1.1 0-1.6-.2-1.6-.8 0-.3.2-.6.8-.6.9 0 2.1-.2 3-.4 2-.4 2.5-2.6 2.9-5.5.5-4.2.5-12.1.5-21.7v-17.6c0-15.6 0-18.4-.2-21.6-.2-3.4-1.2-5.1-3.4-5.6-1.1-.3-2.4-.4-3.1-.4-.4 0-.8-.2-.8-.6 0-.6.5-.8 1.6-.8 3.3 0 9.6.3 10.1.3s6.8-.3 9.8-.3c1.1 0 1.6.2 1.6.8 0 .4-.4.6-.8.6-.7 0-1.3.1-2.5.3-2.7.5-3.5 2.2-3.7 5.7-.2 3.2-.2 6-.2 21.6v17.6zm45.2.2c0 14.7.4 21.1 2.2 22.9 1.6 1.6 4.2 2.3 12 2.3 5.3 0 9.7-.1 12.1-3 1.3-1.6 2.3-4.1 2.6-6 .1-.8.3-1.3.9-1.3.5 0 .6.4.6 1.5s-.7 7.1-1.5 10c-.7 2.3-1 2.7-6.3 2.7-7.2 0-12.4-.2-16.6-.3-4.2-.2-7.3-.3-10.2-.3-.4 0-2.1.1-4.1.1-2 .1-4.2.2-5.7.2-1.1 0-1.6-.2-1.6-.8 0-.3.2-.6.8-.6.9 0 2.1-.2 3-.4 2-.4 2.5-2.6 2.9-5.5.5-4.2.5-12.1.5-21.7v-17.6c0-15.6 0-18.4-.2-21.6-.2-3.4-1-5-4.3-5.7-.8-.2-2.5-.3-3.4-.3-.4 0-.8-.2-.8-.6 0-.6.5-.8 1.6-.8 4.5 0 10.8.3 11.3.3s7.8-.3 10.8-.3c1.1 0 1.6.2 1.6.8 0 .4-.4.6-.8.6-.7 0-2.1.1-3.3.3-2.9.5-3.7 2.2-3.9 5.7-.2 3.2-.2 6-.2 21.6v17.8zm60.4 0c0 14.7.4 21.1 2.2 22.9 1.6 1.6 4.2 2.3 12 2.3 5.3 0 9.7-.1 12.1-3 1.3-1.6 2.3-4.1 2.6-6 .1-.8.3-1.3.9-1.3.5 0 .6.4.6 1.5s-.7 7.1-1.5 10c-.7 2.3-1 2.7-6.3 2.7-7.2 0-12.4-.2-16.6-.3-4.2-.2-7.3-.3-10.2-.3-.4 0-2.1.1-4.1.1-2 .1-4.2.2-5.7.2-1.1 0-1.6-.2-1.6-.8 0-.3.2-.6.8-.6.9 0 2.1-.2 3-.4 2-.4 2.5-2.6 2.9-5.5.5-4.2.5-12.1.5-21.7v-17.6c0-15.6 0-18.4-.2-21.6-.2-3.4-1-5-4.3-5.7-.8-.2-2.5-.3-3.4-.3-.4 0-.8-.2-.8-.6 0-.6.5-.8 1.6-.8 4.5 0 10.8.3 11.3.3s7.8-.3 10.8-.3c1.1 0 1.6.2 1.6.8 0 .4-.4.6-.8.6-.7 0-2.1.1-3.3.3-2.9.5-3.7 2.2-3.9 5.7-.2 3.2-.2 6-.2 21.6v17.8zm60.4-.2c0 9.6 0 17.5.5 21.7.3 2.9.9 5.1 3.9 5.5 1.4.2 3.6.4 4.5.4.6 0 .8.3.8.6 0 .5-.5.8-1.6.8-5.5 0-11.8-.3-12.3-.3s-6.8.3-9.8.3c-1.1 0-1.6-.2-1.6-.8 0-.3.2-.6.8-.6.9 0 2.1-.2 3-.4 2-.4 2.5-2.6 2.9-5.5.5-4.2.5-12.1.5-21.7v-17.6c0-15.6 0-18.4-.2-21.6-.2-3.4-1.2-5.1-3.4-5.6-1.1-.3-2.4-.4-3.1-.4-.4 0-.8-.2-.8-.6 0-.6.5-.8 1.6-.8 3.3 0 9.6.3 10.1.3s6.8-.3 9.8-.3c1.1 0 1.6.2 1.6.8 0 .4-.4.6-.8.6-.7 0-1.3.1-2.5.3-2.7.5-3.5 2.2-3.7 5.7-.2 3.2-.2 6-.2 21.6v17.6zm51.2-44.1c1.2-3.3 1.6-3.9 2.2-3.9.6 0 1 .5 2.2 3.6 1.5 3.8 17.2 45.1 23.3 60.3 3.6 8.9 6.5 10.5 8.6 11.1 1.5.5 3 .6 4 .6.6 0 1 .1 1 .6 0 .6-.9.8-2 .8-1.5 0-8.8 0-15.7-.2-1.9-.1-3-.1-3-.7 0-.4.3-.6.7-.7.6-.2 1.2-1.1.6-2.7l-9.3-24.6c-.2-.4-.4-.6-.9-.6h-21.5c-.5 0-.8.3-1 .8l-6 17.7c-.9 2.5-1.4 4.9-1.4 6.7 0 2 2.1 2.9 3.8 2.9h1c.7 0 1 .2 1 .6 0 .6-.6.8-1.5.8-2.4 0-6.7-.3-7.8-.3-1.1 0-6.6.3-11.3.3-1.3 0-1.9-.2-1.9-.8 0-.4.4-.6.9-.6.7 0 2.1-.1 2.9-.2 4.6-.6 6.6-4.4 8.4-9.4l22.7-62.1zm10.4 40c.5 0 .5-.3.4-.7l-9.5-27c-.5-1.5-1-1.5-1.5 0l-8.8 27c-.2.5 0 .7.3.7h19.1zm49.1 19.51c.2 8.2 1.2 10.8 3.9 11.6 1.9.5 4.1.6 5 .6.5 0 .8.2.8.6 0 .6-.6.8-1.8.8-5.7 0-9.7-.3-10.6-.3-.9 0-5.1.3-9.6.3-1 0-1.6-.1-1.6-.8 0-.4.3-.6.8-.6.8 0 2.6-.1 4.1-.6 2.5-.7 3-3.6 3-12.7l.1-57.3c0-3.9.3-5 1.1-5s2.5 2.2 3.5 3.2c1.5 1.7 16.4 17.8 31.8 34.3 9.9 10.6 20.8 22.8 24 26.1l-1.1-50.8c-.1-6.5-.8-8.7-3.9-9.5-1.8-.4-4.1-.5-4.9-.5-.7 0-.8-.3-.8-.7 0-.6.8-.7 2-.7 4.5 0 9.3.3 10.4.3 1.1 0 4.4-.3 8.5-.3 1.1 0 1.8.1 1.8.7 0 .4-.4.7-1.1.7-.5 0-1.2 0-2.4.3-3.3.7-3.7 2.9-3.7 8.9l-.2 58.6c0 6.6-.2 7.1-.9 7.1-.8 0-2-1.1-7.3-6.4-1.1-1-15.5-15.7-26.1-27.1-11.6-12.5-22.9-25.1-26.1-28.7l1.3 47.9zm114.5-15.41c0 9.6 0 17.5.5 21.7.3 2.9.9 5.1 3.9 5.5 1.4.2 3.6.4 4.5.4.6 0 .8.3.8.6 0 .5-.5.8-1.6.8-5.5 0-11.8-.3-12.3-.3s-6.8.3-9.8.3c-1.1 0-1.6-.2-1.6-.8 0-.3.2-.6.8-.6.9 0 2.1-.2 3-.4 2-.4 2.5-2.6 2.9-5.5.5-4.2.5-12.1.5-21.7v-42.3l-14.8.2c-6.2.1-8.6.8-10.2 3.2-1.1 1.7-1.4 2.4-1.7 3.1-.3.8-.6 1-1 1-.3 0-.5-.3-.5-.9 0-1 2-9.6 2.2-10.4.2-.6.6-1.9 1-1.9.7 0 1.7 1 4.4 1.2 2.9.3 6.7.5 7.9.5h37.5c3.2 0 5.5-.2 7.1-.5 1.5-.2 2.4-.5 2.8-.5.5 0 .5.6.5 1.2 0 3-.3 9.9-.3 11 0 .9-.3 1.3-.7 1.3-.5 0-.7-.3-.8-1.7l-.1-1.1c-.3-3-2.7-5.3-12.3-5.5l-12.6-.2v42.3zm49-17.6c0-15.6 0-18.4-.2-21.6-.2-3.4-1-5-4.3-5.7-.8-.2-2.5-.3-3.4-.3-.4 0-.8-.2-.8-.6 0-.6.5-.8 1.6-.8 2.3 0 5 0 7.2.1l4.1.2c.7 0 20.6 0 22.9-.1 1.9-.1 3.5-.3 4.3-.5.5-.1.9-.5 1.4-.5.3 0 .4.4.4.9 0 .7-.5 1.9-.8 4.7-.1 1-.3 5.4-.5 6.6-.1.5-.3 1.1-.7 1.1-.6 0-.8-.5-.8-1.3 0-.7-.1-2.4-.6-3.6-.7-1.6-1.7-2.8-7.1-3.4-1.7-.2-12.6-.3-13.7-.3-.4 0-.6.3-.6 1v27.6c0 .7.1 1 .6 1 1.3 0 13.6 0 15.9-.2 2.4-.2 3.8-.4 4.7-1.4.7-.8 1.1-1.3 1.5-1.3.3 0 .5.2.5.8 0 .6-.5 2.3-.8 5.6-.2 2-.4 5.7-.4 6.4 0 .8 0 1.9-.7 1.9-.5 0-.7-.4-.7-.9 0-1 0-2-.4-3.3-.4-1.4-1.3-3.1-5.2-3.5-2.7-.3-12.6-.5-14.3-.5-.5 0-.7.3-.7.7v8.8c0 3.4-.1 15 0 17.1.3 6.9 1.8 8.2 11.6 8.2 2.6 0 7 0 9.6-1.1 2.6-1.1 3.8-3.1 4.5-7.2.2-1.1.4-1.5.9-1.5.6 0 .6.8.6 1.5 0 .8-.8 7.6-1.3 9.7-.7 2.6-1.5 2.6-5.4 2.6-7.5 0-13-.2-16.9-.3-3.9-.2-6.3-.3-7.8-.3-.2 0-1.9 0-4 .1-2 0-4.3.2-5.8.2-1.1 0-1.6-.2-1.6-.8 0-.3.2-.6.8-.6.9 0 2.1-.2 3-.4 2-.4 2.5-2.6 2.9-5.5.5-4.2.5-12.1.5-21.7v-17.6z" id="La_Brilliante"/></svg>