<svg xmlns="http://www.w3.org/2000/svg" xmlns:v="https://vecta.io/nano" width="41"
    height="40" fill="none">
    <path
        d="M32.683.244H20.832v.319h11.502l-1.523 2.515h-19.99L9.299.563h11.502V.244H8.951L.878 8.457v23.114l8.605 8.185h22.668l8.605-8.185V8.457L32.683.244zm-2.231 36.05h.009l7.36-6.145v-.035l2.511 1.423-8.205 7.805-1.676-3.047zm-9.695-.319h-9.038l1.469-2.671h15.256l1.469 2.671h-9.156zM9.507 39.34l-8.205-7.805 2.511-1.423v.035l7.36 6.145h.009L9.507 39.34zm2.9-33.026l-5.34 5.665-2.744-1.659 6.402-6.793 1.683 2.787zm16.349.165l-1.612 2.664h-6.31v.319h6.334l4.244 4.503v12.352l-4.521 3.775H14.744l-4.521-3.775V13.965l4.246-4.503h6.334v-.319h-6.312l-1.612-2.664h15.878zm2.156-2.95l6.402 6.793-2.744 1.659-5.34-5.668 1.683-2.784zm-10.13 29.455h-7.416l1.417-2.576h12.072l1.417 2.576h-7.489zm-16.65-3.415V10.578l2.78 1.678v15.737l-2.78 1.576zM7.226 12.45l2.681 1.619v12.229l-2.681 1.517V12.45zm2.822 14.134l4.437 3.704-1.471 2.673-5.75-4.8 2.784-1.576zm17.099 3.704l4.437-3.704 2.782 1.576-5.75 4.801-1.469-2.673zm4.58-3.99V14.069l2.681-1.619v15.366l-2.681-1.517zm2.996-14.04l2.78-1.678v18.989l-2.78-1.574V12.258zm-3.641-9.01L32.648.662l7.697 7.831-2.751 1.662-6.51-6.906zm3.206 8.901l-2.648 1.6-4.211-4.467 1.624-2.685 5.235 5.552zM14.202 9.28l-4.211 4.467-2.648-1.6 5.232-5.552 1.626 2.685zm-10.158.874L1.292 8.493 8.989.662l1.565 2.586-6.51 6.906zm-.224.236l-.007.007v19.351l-2.617 1.482V8.805l2.624 1.586zm7.468 25.584l-7.157-5.975v-.064l2.839-1.607 5.889 4.919-1.502 2.73h-.068v-.002zm17.485-2.73l5.889-4.919 2.838 1.607v.064l-7.157 5.975h-.071l-1.499-2.728zm9.048-3.496l-.007-19.358 2.624-1.586v22.426l-2.617-1.482zM20.802 3.397h9.819L28.95 6.16H12.684l-1.671-2.763h9.789zM9.815 39.437l1.73-3.144h18.545l1.73 3.144H9.815z"
        fill="#303333" />
</svg>  