<svg xmlns="http://www.w3.org/2000/svg" width="35" height="40" viewBox="0 0 35 40"
    fill="none">
    <path
        d="M34.086 19.9989C34.0967 19.8298 34.1203 19.4168 34.1203 18.8196C34.1203 16.6408 33.8206 12.0134 31.5476 7.91047C29.2917 3.83105 25.0518 0.282422 17.2868 0.246037C17.2397 0.246037 17.1947 0.243896 17.1476 0.243896V0.47505V0.243896C17.1006 0.243896 17.0556 0.246037 17.0085 0.246037H17.0064C9.24135 0.284562 4.99926 3.83105 2.74338 7.91047C0.470374 12.0134 0.172871 16.6408 0.170731 18.8218C0.170731 19.4168 0.194274 19.8298 0.204975 19.9989C0.194274 20.168 0.170731 20.5811 0.170731 21.1782C0.170731 23.3592 0.470374 27.9844 2.74124 32.0874C4.99712 36.1668 9.23921 39.7154 17.0021 39.754C17.0428 39.754 17.0834 39.7561 17.1241 39.7561H17.1583C17.199 39.7561 17.2397 39.754 17.2803 39.754C25.0454 39.7176 29.2853 36.1689 31.5412 32.0874C33.8142 27.9844 34.1117 23.3571 34.1139 21.1782C34.1203 20.5832 34.0967 20.1701 34.086 19.9989ZM22.462 36.7511L27.6437 36.2374C26.6228 37.04 25.4328 37.7335 24.0458 38.2643C23.8832 38.0995 23.2967 37.5131 22.462 36.7511ZM17.1455 39.4286C17.1305 39.4286 17.1155 39.4286 17.0984 39.4286L12.4882 36.6013C13.7681 35.4648 15.4825 34.0693 17.1455 33.1083C18.7657 34.0458 20.4352 35.392 21.7022 36.5114C21.7365 36.5414 21.7686 36.5713 21.8028 36.5991L17.1926 39.4265C17.1776 39.4265 17.1626 39.4286 17.1455 39.4286ZM10.2473 38.2643C8.86037 37.7314 7.67036 37.04 6.64944 36.2374L11.8311 36.7511C10.9943 37.5131 10.41 38.1016 10.2473 38.2643ZM11.8311 3.24889L6.64944 3.76256C7.67036 2.95995 8.86037 2.26649 10.2473 1.73355C10.41 1.90049 10.9943 2.48694 11.8311 3.24889ZM17.1455 0.571364V0.543539V0.571364C17.1626 0.571364 17.1776 0.571364 17.1926 0.571364L21.8028 3.40085C20.525 4.53735 18.8085 5.93283 17.1455 6.89383C15.5253 5.95851 13.8558 4.61012 12.5888 3.49074C12.5545 3.46078 12.5224 3.43081 12.4882 3.40085L17.0984 0.571364C17.1155 0.571364 17.1305 0.571364 17.1455 0.571364ZM24.0458 1.73355C25.4328 2.26649 26.6228 2.95781 27.6437 3.76256L22.462 3.24889C23.2989 2.48694 23.8832 1.90049 24.0458 1.73355ZM24.2642 29.7716L27.0038 20.4677L27.618 29.0396C26.5736 29.2194 25.437 29.4591 24.2642 29.7716ZM17.1455 32.9585L17.1177 32.9114L17.1455 32.8707L17.1712 32.9114L17.1455 32.9585ZM17.1455 32.7573C15.0951 31.4282 12.6958 30.51 10.3993 29.8722L7.49272 20.0011L10.3993 10.13C12.6958 9.49216 15.0951 8.57183 17.1455 7.24484C19.1959 8.57397 21.5952 9.4943 23.8917 10.13L26.7983 20.0011L23.8917 29.8722C21.5973 30.5078 19.1959 31.4282 17.1455 32.7573ZM23.7826 30.2446L21.9912 36.3295C20.7519 35.2315 19.1146 33.8959 17.4901 32.9307C19.4057 31.7171 21.6294 30.8546 23.7826 30.2446ZM16.8031 32.9285C15.1786 33.8959 13.5391 35.2293 12.2998 36.3295L10.5084 30.2446C12.6616 30.8546 14.8875 31.715 16.8031 32.9285ZM6.67512 29.0374L7.28939 20.4655L10.029 29.7716C8.85609 29.4591 7.71745 29.2194 6.67512 29.0374ZM10.0268 10.2284L7.28725 19.5323L6.67298 10.9604C7.71745 10.7785 8.85609 10.5409 10.0268 10.2284ZM17.1455 7.03937L17.1712 7.08646L17.1455 7.12712L17.1177 7.08646L17.1455 7.03937ZM10.5084 9.75542L12.2998 3.67053C13.5391 4.7685 15.1764 6.10406 16.8031 7.06933C14.8853 8.28289 12.6616 9.14543 10.5084 9.75542ZM17.4879 7.07147C19.1124 6.1062 20.7519 4.77064 21.9912 3.67267L23.7826 9.75756C21.6316 9.14543 19.4057 8.28503 17.4879 7.07147ZM27.0038 19.5345L24.2642 10.2306C25.437 10.543 26.5736 10.7806 27.618 10.9626L27.0038 19.5345ZM24.155 9.86029L22.3015 3.56351L28.0975 4.13711C28.0996 4.13925 28.1017 4.14139 28.106 4.14353L27.6416 10.6329C26.5564 10.4425 25.3728 10.1899 24.155 9.86029ZM6.19355 4.13711L11.9895 3.56351L10.136 9.86029C9.03374 10.1599 7.95717 10.3954 6.95978 10.5773C6.85491 10.5966 6.75217 10.6137 6.64944 10.6329L6.18713 4.14353C6.18927 4.14139 6.19141 4.13925 6.19355 4.13711ZM6.99403 19.9989L6.37762 28.6051L0.588091 19.9989L6.37762 11.3949L6.99403 19.9989ZM10.136 30.1397L11.9895 36.4365L6.19355 35.8629C6.19141 35.8607 6.18927 35.8586 6.18499 35.8565L6.64944 29.367C7.73457 29.5575 8.9203 29.8101 10.136 30.1397ZM28.0975 35.8629L22.3015 36.4365L24.155 30.1397C25.2573 29.8401 26.3338 29.6046 27.3312 29.4227C27.4361 29.4034 27.5388 29.3842 27.6416 29.367L28.106 35.8565C28.1017 35.8586 28.0996 35.8607 28.0975 35.8629ZM27.2991 20.0011L27.9155 11.3949L33.7029 20.0011L27.9155 28.6072L27.2991 20.0011ZM33.78 19.5259L28.0718 11.0396C30.5117 11.4398 32.3481 11.5319 32.7269 11.549C33.6366 14.4876 33.7928 17.2807 33.7907 18.8218C33.7907 19.1 33.7864 19.3354 33.78 19.5259ZM31.2608 8.071C31.8323 9.09834 32.2753 10.1642 32.6199 11.2151C32.3738 11.2044 31.8986 11.1766 31.2437 11.1167C30.3983 11.0396 29.2639 10.909 27.9648 10.6907L28.4142 4.42177C29.6042 5.51119 30.5331 6.76113 31.2608 8.071ZM23.7077 1.60941C23.6071 1.71215 23.4573 1.85983 23.2625 2.04817C22.9564 2.34354 22.5455 2.73521 22.0596 3.17184L17.8368 0.582065C20.1013 0.646274 22.0404 1.01441 23.7077 1.60941ZM12.2335 3.17184C11.7476 2.73521 11.3346 2.34354 11.0306 2.04817C10.8359 1.85983 10.6861 1.71215 10.5855 1.60941C12.2528 1.01441 14.1919 0.644134 16.4563 0.579925L12.2335 3.17184ZM3.03018 8.071C3.75788 6.76113 4.68892 5.51119 5.87679 4.41963L6.32625 10.6886C5.02709 10.9069 3.89058 11.0375 3.0473 11.1145C2.39451 11.1744 1.91722 11.2023 1.67109 11.213C2.01781 10.1642 2.46086 9.09834 3.03018 8.071ZM1.56407 11.549C1.9429 11.5319 3.77929 11.4398 6.21924 11.0396L0.508899 19.5281C0.502478 19.3376 0.498198 19.1021 0.498198 18.8239C0.500338 17.2807 0.65444 14.4876 1.56407 11.549ZM0.511039 20.4741L6.21924 28.9604C3.77929 28.5602 1.9429 28.4681 1.56407 28.451C0.65444 25.5124 0.498198 22.7193 0.498198 21.1782C0.500338 20.9 0.504618 20.6624 0.511039 20.4741ZM3.03018 31.929C2.46086 30.8995 2.01567 29.8358 1.67109 28.7827C1.91722 28.7956 2.39237 28.8234 3.0473 28.8833C3.89272 28.9604 5.02923 29.0909 6.32625 29.3093L5.87679 35.5782C4.68892 34.4888 3.75788 33.2389 3.03018 31.929ZM10.5855 38.3906C10.6861 38.29 10.8359 38.1402 11.0306 37.9518C11.3367 37.6565 11.7476 37.2648 12.2335 36.8282L16.4563 39.4201C14.1919 39.3537 12.2506 38.9856 10.5855 38.3906ZM22.0575 36.8282C22.5434 37.2669 22.9564 37.6565 23.2604 37.9518C23.453 38.1402 23.6028 38.2878 23.7055 38.3906C22.0382 38.9856 20.0991 39.3559 17.8347 39.4179L22.0575 36.8282ZM31.2608 31.929C30.5331 33.2389 29.6042 34.4888 28.4142 35.5804L27.9648 29.3114C29.2639 29.0931 30.4004 28.9625 31.2437 28.8855C31.8965 28.8255 32.3716 28.7977 32.6178 28.787C32.2753 29.8358 31.8323 30.9016 31.2608 31.929ZM32.7269 28.451C32.3481 28.4681 30.5117 28.558 28.0718 28.9604L33.7821 20.4741C33.7885 20.6646 33.7928 20.9 33.7928 21.1782C33.7928 22.7214 33.6366 25.5124 32.7269 28.451Z"
        fill="#303333" />
</svg>