<svg xmlns="http://www.w3.org/2000/svg" width="30" height="40" viewBox="0 0 30 40"
    fill="none">
    <path
        d="M29.5999 19.9569V5.60311L24.1428 0.243896H5.82289L0.365852 5.60311V34.3969L5.82289 39.7561H14.9819H24.1409L29.5999 34.3969V19.9569ZM29.3651 34.0701L27.6726 32.4266V20.0333V7.57148L29.3651 5.92791V20.0411V34.0701ZM14.9819 39.5213H6.05769L7.33733 36.8564H14.9819V36.6216H7.44885L8.72849 33.9566H14.9819V33.7218H8.84197L9.96704 31.3798H14.9819H19.9967L21.1218 33.7218H14.9819V33.9566H21.2333L22.5129 36.6216H14.9799V36.8564H22.6245L23.9041 39.5213H14.9819ZM2.42423 32.6242L7.10449 36.7957L5.83463 39.4391L0.647607 34.346L2.42423 32.6242ZM7.10644 3.20232L2.42423 7.37386L0.649564 5.65007L5.83659 0.556957L7.10644 3.20232ZM14.9819 3.37646H22.5149L21.2353 6.04139H14.9819H8.73045L7.45081 3.37646H14.9819ZM24.1291 0.558914L29.3162 5.65202L27.5415 7.37581L22.8612 3.20232L24.1291 0.558914ZM27.4397 32.1996L25.0448 29.8732V20.0254V10.1249L27.4397 7.79845V32.1996ZM21.4388 33.8412L24.9333 30.0923L27.3713 32.4598L22.7536 36.5766L21.4388 33.8412ZM20.2433 31.3504L23.0099 28.2237L24.767 29.9279L21.3331 33.6142L20.2433 31.3504ZM9.85159 31.145L7.05361 27.983V20.0196V12.0169L9.85159 8.85503H20.1122L22.9082 12.0169V20.0196V27.983L20.1122 31.145H14.9819H9.85159ZM8.63457 33.6142L5.20069 29.9279L6.95774 28.2237L9.72441 31.3504L8.63457 33.6142ZM5.15568 10.3519L6.82078 11.97V28.028L5.15568 29.6462V10.3519ZM21.1218 6.27619L19.9967 8.62023H9.96899L8.84393 6.27619H21.1218ZM24.81 20.0254V29.6462L23.1449 28.028V20.0196V11.97L24.81 10.3519V20.0254ZM24.9333 9.90574L21.4388 6.15683L22.7517 3.42146L27.3693 7.53821L24.9333 9.90574ZM24.765 10.0681L23.0099 11.7743L20.2433 8.64762L21.3311 6.38185L24.765 10.0681ZM9.72246 8.64762L6.95578 11.7743L5.19873 10.0681L8.63457 6.3838L9.72246 8.64762ZM5.03242 9.90574L2.5925 7.53821L7.21015 3.42146L8.52304 6.15683L5.03242 9.90574ZM2.52597 7.79845L4.92089 10.1249V29.8732L2.52597 32.1996V20.0352V7.79845ZM5.03242 30.0923L8.525 33.8412L7.2121 36.5766L2.59445 32.4598L5.03242 30.0923ZM22.8593 36.7957L27.5395 32.6242L29.3142 34.348L24.1272 39.4411L22.8593 36.7957ZM23.908 0.476735L22.6284 3.14167H14.9819H7.33733L6.05769 0.476735H14.9838H23.908ZM0.598691 20.0411V5.92791L2.29118 7.57148V20.0333V32.4266L0.598691 34.0701V20.0411Z"
        fill="#303333" />
</svg>