<svg xmlns="http://www.w3.org/2000/svg" width="42" height="40" viewBox="0 0 42 40"
    fill="none">
    <path
        d="M38.0078 2.66965C35.8864 0.876091 33.4935 0.243896 31.1942 0.243896C26.242 0.248579 21.6948 3.14263 20.8613 3.6999C20.0301 3.14263 15.4806 0.248579 10.5284 0.243896C8.22674 0.243896 5.83376 0.876091 3.71474 2.66965C1.00332 4.9596 0.146347 8.24702 0.146347 11.4689C0.148689 16.7957 2.46908 21.9937 2.75942 22.5627C4.35864 25.6886 9.82596 34.7547 20.8543 39.7561C31.8825 34.7547 37.3662 25.6862 38.9655 22.5627C39.2535 21.9937 41.5739 16.7957 41.5785 11.4689C41.5785 8.24702 40.7192 4.9596 38.0078 2.66965ZM16.7263 31.3175L14.6611 24.752L20.4984 28.3344L16.7263 31.3175ZM20.7887 28.5124L20.8098 28.5264L20.8449 28.4679L20.8613 28.4562L20.8777 28.4702L20.9128 28.5288L20.9339 28.5147L24.8745 31.6289L20.8613 39.0209L16.848 31.6289L20.7887 28.5124ZM21.2242 28.3344L27.0615 24.7497L24.9963 31.3151L21.2242 28.3344ZM20.8613 28.1846L14.5159 24.2884V24.286L8.87766 12.6747L10.4488 5.31316L20.6927 6.30829L20.8519 6.32234H20.8706L21.0299 6.30829L31.2738 5.31316L32.8449 12.6747L27.2066 24.2884V24.2907L20.8613 28.1846ZM8.69503 12.0144L6.66732 4.69502L10.1327 5.27336L8.69503 12.0144ZM8.76996 13.1781L14.0125 23.9793L7.33932 19.8841L8.76996 13.1781ZM32.9526 13.1781L34.3832 19.8841L27.7101 23.9793L32.9526 13.1781ZM31.5922 5.27102L35.0576 4.69268L33.0322 12.0121L31.5922 5.27102ZM32.5428 0.639604C34.2638 0.84097 35.9871 1.45912 37.5723 2.72116L35.3128 4.27824L32.5428 0.639604ZM34.992 4.38126L31.4587 4.97131L29.4966 2.91551L32.2244 0.744969L34.992 4.38126ZM29.218 3.08409L31.0607 5.01346L22.1069 5.88214L29.218 3.08409ZM10.6642 5.0158L12.5069 3.08643L19.618 5.88448L10.6642 5.0158ZM10.2662 4.97131L6.73288 4.38126L9.50284 0.744969L12.2306 2.91551L10.2662 4.97131ZM6.4121 4.27824L4.15259 2.72116C5.73776 1.45677 7.45874 0.84097 9.18206 0.639604L6.4121 4.27824ZM8.54986 12.6864L7.07006 19.6265L0.549079 12.5108L0.525664 12.5319L6.37932 4.84253L8.54986 12.6864ZM7.32762 20.2494L14.249 24.4968L16.4055 31.3549L7.5524 28.983L7.32762 20.2494ZM7.22927 28.7512C5.18049 26.2318 3.85991 23.984 3.15747 22.6423L7.00918 20.2423L7.22927 28.7512ZM20.6669 39.3229C18.2014 38.1756 16.0215 36.8246 14.1038 35.3869L16.6256 31.8818L20.6669 39.3229ZM25.0993 31.8818L27.6164 35.3799C25.7034 36.8176 23.5259 38.1662 21.065 39.3136L25.0993 31.8818ZM27.4759 24.4968L34.3973 20.2494L34.1725 28.983L25.3194 31.3549L27.4759 24.4968ZM34.7134 20.2423L38.5674 22.6423C37.865 23.9817 36.5421 26.2248 34.4956 28.7418L34.7134 20.2423ZM34.6525 19.6265L33.1727 12.6864L35.3432 4.84487L41.1969 12.5342L41.1735 12.5132L34.6525 19.6265ZM41.2601 11.4689C41.2601 11.6702 41.2554 11.8716 41.2484 12.073L35.5048 4.52877L37.8252 2.92955C40.4242 5.1399 41.2578 8.30555 41.2601 11.4689ZM31.1942 0.562336C31.433 0.562336 31.6742 0.571701 31.9153 0.58575L29.1805 2.76097L21.0299 5.96877V3.96916C21.058 3.95043 21.0907 3.92936 21.1282 3.9036C22.1421 3.23395 26.5229 0.557653 31.1942 0.562336ZM17.6792 2.30438C18.6322 2.74224 19.4166 3.17775 19.9645 3.50555C20.3274 3.72331 20.5826 3.88955 20.7138 3.97853V5.97346L12.5444 2.75863L9.80957 0.583408C10.0507 0.56936 10.2896 0.559994 10.5307 0.559994C13.1977 0.559994 15.7733 1.43102 17.6792 2.30438ZM3.89737 2.9319L6.21776 4.53112L0.474152 12.0753C0.467128 11.8739 0.464786 11.6726 0.464786 11.4689C0.464786 8.30555 1.30069 5.1399 3.89737 2.9319ZM0.523323 12.9534L6.91552 19.9286L3.0123 22.3614C2.67044 21.6566 0.869859 17.4911 0.523323 12.9534ZM7.73503 29.36L16.3821 31.678L13.8509 35.1949C11.3737 33.303 9.35064 31.2706 7.73503 29.36ZM27.8669 35.1902L25.3405 31.6804L33.9782 29.3647C32.3649 31.2706 30.3419 33.2983 27.8669 35.1902ZM38.7126 22.359L34.8094 19.9262L41.2016 12.9534C40.855 17.4911 39.0521 21.6566 38.7126 22.359Z"
        fill="#303333" />
</svg>