<svg xmlns="http://www.w3.org/2000/svg" width="20" height="40" viewBox="0 0 20 40"
fill="none">
<path
    d="M19.8064 20.0795C19.8082 20.0615 19.81 20.0506 19.81 20.0506H19.8064C19.8064 20.0488 19.8064 20.047 19.8064 20.0452H19.8082C19.8082 20.0271 19.8082 20.0108 19.8082 19.9928C19.8082 19.9783 19.8082 19.962 19.8082 19.9476H19.8064C19.8064 19.9458 19.8064 19.944 19.8064 19.944H19.81C19.81 19.944 19.8082 19.9331 19.8064 19.9168C19.7775 14.6705 18.0709 10.3606 16.1021 7.12635C16.0967 7.09924 16.0931 7.08477 16.0931 7.08296L16.0786 7.08658C13.3669 2.65014 10.1724 0.24932 10.167 0.243896L10.1489 0.269206L10.1308 0.245704C10.1254 0.251128 6.93095 2.65194 4.221 7.08658L4.20473 7.08296C4.20473 7.08296 4.20111 7.09924 4.19569 7.12635C2.22695 10.3606 0.522153 14.6705 0.491419 19.9168C0.489612 19.9349 0.487804 19.9458 0.487804 19.9458H0.491419C0.491419 19.9476 0.491419 19.9494 0.491419 19.9512H0.489612C0.489612 19.9675 0.489612 19.9837 0.489612 20C0.489612 20.0163 0.489612 20.0325 0.489612 20.0488H0.491419C0.491419 20.0506 0.491419 20.0524 0.491419 20.0542H0.487804C0.487804 20.0542 0.489612 20.0651 0.491419 20.0832C0.522153 25.3277 2.22695 29.6394 4.19569 32.8736C4.20111 32.9008 4.20473 32.9152 4.20473 32.917L4.221 32.9134C6.93095 37.3481 10.1254 39.7507 10.1308 39.7561L10.1489 39.7308L10.167 39.7561C10.1724 39.7507 13.3669 37.3499 16.0768 32.9134L16.0931 32.917C16.0931 32.917 16.0967 32.9008 16.1021 32.8736C18.0709 29.6358 19.7757 25.3259 19.8064 20.0795ZM16.1998 32.2409C16.2703 31.6913 16.348 30.8091 16.348 29.6033C16.348 29.1007 16.3335 28.5402 16.301 27.9256C17.2646 26.8427 17.9751 25.6188 18.4921 24.4654C18.9983 23.3355 19.3237 22.2725 19.5226 21.4716C19.2496 25.7815 17.8467 29.399 16.1998 32.2409ZM15.6285 33.1521C15.6285 33.1521 15.6086 33.1792 15.5652 33.2334C15.2741 33.5986 13.9779 35.0937 11.7814 35.9777C12.4196 33.6908 12.4955 31.7076 12.4955 30.8868C12.4955 30.7458 12.4937 30.6392 12.4919 30.5705C13.9544 30.0299 15.1313 29.1712 16.0786 28.1714C16.1039 28.6903 16.1148 29.1694 16.1148 29.6051C16.1148 30.6825 16.0515 31.4979 15.99 32.0438C15.9593 32.3168 15.9268 32.5229 15.9051 32.6585C15.896 32.7091 15.8888 32.7507 15.8834 32.7814C15.8056 32.9098 15.7261 33.0364 15.6466 33.1611L15.6285 33.1521ZM10.1489 39.3909C9.57402 38.3514 9.15279 37.2884 8.84726 36.2724C9.29019 35.8638 9.77288 35.3558 10.1489 34.8044C10.5249 35.3558 11.0076 35.8638 11.4506 36.2724C11.145 37.2884 10.7238 38.3532 10.1489 39.3909ZM4.41805 32.7833C4.41263 32.7525 4.4054 32.7109 4.39636 32.6603C4.32585 32.2499 4.18484 31.2213 4.18484 29.6051C4.18484 29.1694 4.19569 28.6921 4.221 28.1714C5.1665 29.1712 6.34521 30.0317 7.80595 30.5705C7.80414 30.6392 7.80233 30.7458 7.80233 30.8868C7.80233 31.7076 7.87826 33.6908 8.51643 35.9777C7.29252 35.4842 6.34883 34.8026 5.70162 34.2313C5.35994 33.9294 5.09961 33.6582 4.92786 33.463C4.84109 33.3654 4.776 33.2876 4.73442 33.2334C4.69104 33.1792 4.67115 33.1521 4.67115 33.1521L4.65669 33.1629C4.57533 33.0364 4.4976 32.9116 4.41805 32.7833ZM0.726439 20C0.726439 19.9783 0.726439 19.9566 0.726439 19.9349C0.733671 19.8825 0.749941 19.7776 0.777059 19.624C0.972306 18.5194 1.75149 15.0646 4.01671 12.4053C4.14507 14.4011 4.48133 16.9429 5.22254 20C4.48133 23.0571 4.14507 25.5971 4.01671 27.5947C3.15075 26.5805 2.50174 25.4488 2.02085 24.375C1.502 23.218 1.17659 22.1278 0.981345 21.3288C0.883722 20.9292 0.818639 20.602 0.778866 20.376C0.751749 20.2206 0.735478 20.1157 0.728247 20.0633C0.726439 20.0398 0.726439 20.0199 0.726439 20ZM4.18484 10.3895C4.18484 9.31203 4.24812 8.4967 4.30958 7.95073C4.34032 7.67774 4.37286 7.47165 4.39636 7.33606C4.4054 7.28544 4.41263 7.24386 4.41805 7.21313C4.49579 7.08477 4.57533 6.95822 4.65488 6.83348L4.66934 6.84433C4.66934 6.84433 4.68923 6.81721 4.73262 6.76298C5.02368 6.39779 6.3199 4.90271 8.51462 4.01867C7.87645 6.30559 7.80052 8.28699 7.80052 9.10956C7.80052 9.25057 7.80233 9.35723 7.80414 9.42593C6.3416 9.96647 5.16469 10.8252 4.21919 11.8249C4.19569 11.3043 4.18484 10.8252 4.18484 10.3895ZM10.1489 0.603657C10.7238 1.64136 11.145 2.70618 11.4506 3.72219C11.0076 4.13076 10.5249 4.63876 10.1489 5.19015C9.77288 4.63876 9.29019 4.13076 8.84726 3.72219C9.15279 2.70618 9.57402 1.64317 10.1489 0.603657ZM15.9015 7.33606C15.972 7.74644 16.113 8.77511 16.113 10.3913C16.113 10.827 16.1021 11.3043 16.0786 11.8249C15.1313 10.8252 13.9544 9.96647 12.4919 9.42593C12.4937 9.35723 12.4955 9.25057 12.4955 9.10956C12.4955 8.2888 12.4196 6.30559 11.7814 4.02048C13.0053 4.51402 13.949 5.19558 14.5962 5.76685C14.9379 6.06876 15.1982 6.33994 15.37 6.53519C15.4567 6.63281 15.5218 6.71055 15.5634 6.76478C15.6068 6.81902 15.6267 6.84614 15.6267 6.84614L15.6411 6.83529C15.7207 6.96003 15.7984 7.08658 15.878 7.21494C15.8852 7.24386 15.8924 7.28544 15.9015 7.33606ZM19.5714 19.991C19.5714 20.0145 19.5714 20.038 19.5714 20.0615C19.5642 20.1139 19.5479 20.2187 19.5208 20.3724C19.3255 21.477 18.5463 24.9336 16.2811 27.5911C16.1528 25.5935 15.8165 23.0534 15.0753 19.9964C15.8165 16.9393 16.1528 14.3975 16.2811 12.4016C17.1471 13.4158 17.7943 14.5475 18.277 15.6214C18.7958 16.7784 19.1212 17.8686 19.3165 18.6676C19.4141 19.0672 19.4792 19.3944 19.519 19.6204C19.5461 19.7758 19.5623 19.8807 19.5696 19.9331C19.5714 19.953 19.5714 19.9711 19.5714 19.991ZM10.3116 34.6254C11.0619 33.5498 11.7073 32.2752 12.2587 30.9338C12.2569 31.7817 12.1683 33.7595 11.5229 36.0193C11.1016 35.6216 10.6533 35.1407 10.3116 34.6254ZM8.77314 36.0211C8.12774 33.7613 8.03916 31.7817 8.03735 30.9356C8.58874 32.2789 9.23595 33.5534 9.98621 34.6291C9.64452 35.1407 9.19437 35.6234 8.77314 36.0211ZM9.9844 5.36913C9.23414 6.4448 8.58874 7.71933 8.03735 9.06074C8.03916 8.21467 8.12774 6.23509 8.77314 3.97528C9.19618 4.37301 9.64272 4.8557 9.9844 5.36913ZM11.5247 3.97528C12.1701 6.23509 12.2587 8.21467 12.2605 9.06074C11.7091 7.71752 11.0619 6.44299 10.3116 5.36732C10.6533 4.8557 11.1016 4.37301 11.5247 3.97528ZM10.1489 5.54449C11.8609 8.014 13.0306 11.5809 13.77 14.553C14.1479 16.0734 14.4154 17.4401 14.5872 18.4254C14.7444 19.3275 14.8222 19.906 14.8348 19.9982C14.8222 20.0922 14.7444 20.6707 14.5872 21.571C14.0792 24.4798 12.7377 30.7169 10.1489 34.4519C8.43688 31.9824 7.26721 28.4155 6.5278 25.4434C6.14996 23.923 5.8824 22.5563 5.71066 21.571C5.55338 20.6689 5.47564 20.0904 5.46298 19.9982C5.47564 19.9042 5.55338 19.3257 5.71066 18.4254C6.21686 15.5147 7.56008 9.27769 10.1489 5.54449ZM14.9813 20.6255C15.652 23.5343 15.9521 25.9496 16.0606 27.8442C15.1295 28.8711 13.9653 29.7587 12.5081 30.3137C13.9996 26.4341 14.7426 22.1803 14.9813 20.6255ZM14.9813 19.3691C14.7426 17.8143 13.9996 13.5587 12.5081 9.68264C13.9635 10.2395 15.1295 11.1253 16.0606 12.1503C15.9521 14.045 15.652 16.4602 14.9813 19.3691ZM11.7615 3.75834C11.7868 3.73665 11.8121 3.71315 11.8356 3.69145C12.1014 3.45643 12.3418 3.26661 12.5136 3.13464C12.5967 3.06955 12.6654 3.02074 12.7124 2.98639C13.3958 3.74026 14.1515 4.65503 14.9035 5.72527C14.2238 5.09976 13.1698 4.30612 11.7615 3.75834ZM7.78968 9.68264C6.29821 13.5587 5.55518 17.8143 5.31655 19.3691C4.64584 16.4602 4.34574 14.045 4.23727 12.1503C5.1665 11.1235 6.33436 10.2376 7.78968 9.68264ZM5.31655 20.6255C5.55518 22.1803 6.29821 26.4341 7.78968 30.3119C6.33256 29.7551 5.1665 28.8693 4.23727 27.8442C4.34574 25.9496 4.64403 23.5343 5.31655 20.6255ZM8.53632 36.238C8.51101 36.2597 8.4857 36.2832 8.46219 36.3049C8.19644 36.5399 7.956 36.7298 7.78425 36.8617C7.70109 36.925 7.6324 36.9756 7.58539 37.01C6.90022 36.2561 6.14635 35.3414 5.39429 34.2711C6.07404 34.8966 7.12801 35.6885 8.53632 36.238ZM19.5244 18.5302C19.3237 17.7293 19.0001 16.6627 18.4921 15.5274C17.9751 14.374 17.2646 13.1501 16.301 12.0672C16.3353 11.4525 16.348 10.8939 16.348 10.3895C16.348 9.18368 16.2703 8.30145 16.1998 7.75187C17.8485 10.5974 19.2532 14.2203 19.5244 18.5302ZM12.5533 2.81103C12.3888 2.93035 12.0453 3.19068 11.644 3.54682C11.3746 2.67364 11.0203 1.76429 10.5575 0.865794C11.0113 1.2581 11.7235 1.91254 12.5533 2.81103ZM8.78399 1.74441C9.16545 1.3738 9.49266 1.08093 9.74215 0.865794C9.27934 1.76429 8.925 2.67183 8.65563 3.54682C8.25429 3.19068 7.9108 2.93035 7.74629 2.81103C8.1187 2.40608 8.46943 2.04812 8.78399 1.74441ZM7.58539 2.98639C7.6324 3.02074 7.70109 3.07136 7.78425 3.13464C7.97227 3.27926 8.24164 3.49259 8.53632 3.75834C7.12981 4.30612 6.07584 5.09795 5.3961 5.72347C5.43044 5.67466 5.46479 5.62404 5.50095 5.57522C6.21685 4.57006 6.93276 3.70411 7.58539 2.98639ZM4.09806 7.75367C4.02756 8.30326 3.94982 9.18548 3.94982 10.3913C3.94982 10.8939 3.96428 11.4543 3.99682 12.069C3.03325 13.1519 2.32276 14.3758 1.80572 15.5292C1.29772 16.6591 0.974114 17.7239 0.775251 18.523C1.04824 14.2149 2.44931 10.5956 4.09806 7.75367ZM0.773443 21.4662C0.972306 22.267 1.29772 23.3337 1.80572 24.469C2.32276 25.6224 3.03325 26.8463 3.99682 27.9292C3.96428 28.5439 3.94982 29.1025 3.94982 29.6069C3.94982 30.8127 4.02756 31.6949 4.09806 32.2445C2.44931 29.3972 1.04462 25.7761 0.773443 21.4662ZM7.74448 37.1835C7.909 37.0642 8.25248 36.8039 8.65383 36.4478C8.92319 37.3209 9.27753 38.2303 9.74034 39.1288C9.28657 38.7365 8.57428 38.0838 7.74448 37.1835ZM11.5138 38.2502C11.1324 38.619 10.8052 38.9118 10.5557 39.127C11.0203 38.2285 11.3728 37.3209 11.6422 36.4459C12.0435 36.8021 12.3888 37.0624 12.5515 37.1817C12.1791 37.5903 11.8284 37.9465 11.5138 38.2502ZM12.7124 37.01C12.6654 36.9756 12.5967 36.925 12.5136 36.8617C12.3256 36.7171 12.058 36.502 11.7615 36.238C13.168 35.6903 14.222 34.8984 14.9017 34.2729C14.8674 34.3217 14.833 34.3723 14.7969 34.4212C14.081 35.4263 13.3651 36.2905 12.7124 37.01Z"
    fill="#303333" />
</svg>