<svg xmlns="http://www.w3.org/2000/svg" width="28" height="40" viewBox="0 0 28 40"
    fill="none">
    <path
        d="M27.7884 20.001C27.7943 19.8904 27.8078 19.6227 27.8078 19.2289C27.8078 17.4731 27.5634 13.1799 25.443 8.77026C21.5727 0.713402 15.5897 0.24004 14.286 0.24392C14.2258 0.24392 14.1754 0.24392 14.1347 0.24586C14.0959 0.24392 14.0454 0.24392 13.9853 0.24392C12.6816 0.24004 6.6986 0.713402 2.82634 8.77026C0.70785 13.178 0.463409 17.4712 0.463409 19.2269C0.463409 19.6227 0.47505 19.8904 0.48281 19.999C0.47699 20.1096 0.463409 20.3773 0.463409 20.7712C0.463409 22.5269 0.707851 26.8201 2.82828 31.2298C6.68308 39.2536 12.6331 39.7561 13.9698 39.7561H13.9853C14.0454 39.7561 14.0959 39.7561 14.1366 39.7542C14.1754 39.7561 14.2258 39.7561 14.2879 39.7561H14.3034C15.6401 39.7561 21.5901 39.2536 25.4449 31.2298C27.5653 26.8201 27.8098 22.5269 27.8098 20.7712C27.8078 20.3773 27.7962 20.1116 27.7884 20.001ZM14.1347 39.3079L10.631 32.9156L14.1347 30.5255L17.6383 32.9156L14.1347 39.3079ZM14.1347 0.692062L17.6383 7.08245L14.1347 9.44344L10.6329 7.08439L14.1347 0.692062ZM14.1347 30.3238L9.08869 27.4196L7.0478 20.001L9.08869 12.5804L14.1075 9.69371L14.123 9.70341L14.1366 9.68401L14.1482 9.70341L14.1638 9.69371L19.1826 12.5804L21.2235 20.001L19.1826 27.4196L14.1347 30.3238ZM6.91976 19.6285L5.30567 14.7591L8.81321 12.7395L6.91976 19.6285ZM6.91976 20.3735L8.81321 27.2624L5.30567 25.2429L6.91976 20.3735ZM21.3515 20.3735L22.9656 25.2429L19.458 27.2624L21.3515 20.3735ZM21.3515 19.6285L19.4561 12.7395L22.9636 14.7591L21.3515 19.6285ZM22.9966 14.5185L19.3707 12.433L17.9351 7.21631L23.6601 6.33555L22.9966 14.5185ZM19.0972 12.2739L14.3694 9.55402L17.7276 7.29391L19.0972 12.2739ZM13.9019 9.55402L9.17405 12.2739L10.5437 7.29197L13.9019 9.55402ZM8.89857 12.433L5.27269 14.5185L4.60727 6.33555L10.3322 7.21631L8.89857 12.433ZM5.13495 14.9492L6.80918 19.999L5.13495 25.0489L0.733071 19.999L5.13495 14.9492ZM5.27269 25.4815L8.89857 27.567L10.3322 32.7837L4.60727 33.6645L5.27269 25.4815ZM9.17405 27.7261L13.8766 30.4324L10.5437 32.7061L9.17405 27.7261ZM14.3946 30.4324L19.0972 27.7261L17.7276 32.7061L14.3946 30.4324ZM19.3727 27.567L22.9986 25.4815L23.664 33.6645L17.939 32.7837L19.3727 27.567ZM23.1363 25.0508L21.4621 20.001L23.1363 14.9511L27.5362 20.001L23.1363 25.0508ZM27.577 19.708L23.2546 14.7494L26.7214 12.8811C27.4683 15.6631 27.5828 18.0396 27.5828 19.2289C27.5847 19.4209 27.5809 19.58 27.577 19.708ZM26.6613 12.66L23.2217 14.5146L23.8774 6.45001C24.3527 7.16781 24.8105 7.96904 25.2432 8.86726C25.8659 10.1612 26.3237 11.4455 26.6613 12.66ZM23.6504 6.11245L17.9545 6.98739L19.3727 2.00157C20.7695 2.83771 22.2711 4.12782 23.6504 6.11245ZM19.1729 1.88517L17.7625 6.84577L14.2646 0.467021C14.2705 0.467021 14.2782 0.467021 14.284 0.467021C14.9514 0.468961 16.9089 0.589241 19.1729 1.88517ZM14.0047 0.467021L10.5068 6.84771L9.09645 1.88517C11.3604 0.589241 13.3179 0.468961 13.9853 0.467021C13.9911 0.467021 13.9989 0.467021 14.0047 0.467021ZM8.89857 2.00157L10.3167 6.98739L4.62085 6.11245C6.0002 4.12782 7.49983 2.83771 8.89857 2.00157ZM3.0281 8.86532C3.46072 7.9671 3.91857 7.16393 4.39387 6.44807L5.04959 14.5127L1.60996 12.658C1.94752 11.4455 2.40536 10.1593 3.0281 8.86532ZM1.54788 12.8792L5.01467 14.7474L0.692331 19.7061C0.688451 19.58 0.68651 19.419 0.68651 19.2269C0.68457 18.0377 0.800972 15.6612 1.54788 12.8792ZM0.692331 20.292L5.01467 25.2506L1.54788 27.1189C0.800972 24.3369 0.68651 21.9604 0.68651 20.7712C0.68651 20.581 0.688451 20.42 0.692331 20.292ZM1.60802 27.342L5.04765 25.4873L4.39387 33.5539C3.91857 32.8361 3.46072 32.0349 3.0281 31.1366C2.40536 29.8407 1.94752 28.5545 1.60802 27.342ZM4.62085 33.8895L10.3148 33.0126L8.89663 37.9984C7.49982 37.1623 6.0002 35.8722 4.62085 33.8895ZM9.09645 38.1148L10.5068 33.1523L14.0047 39.533C13.9969 39.533 13.9911 39.533 13.9833 39.533C13.3179 39.533 11.3604 39.4108 9.09645 38.1148ZM14.286 39.5349C14.2782 39.5349 14.2724 39.5349 14.2666 39.5349L17.7644 33.1542L19.1748 38.1148C16.9089 39.4108 14.9514 39.533 14.286 39.5349ZM19.3727 37.9984L17.9545 33.0126L23.6504 33.8895C22.2711 35.8722 20.7695 37.1623 19.3727 37.9984ZM25.2432 31.1347C24.8125 32.0329 24.3527 32.8361 23.8774 33.5519L23.2217 25.4854L26.6613 27.34C26.3237 28.5545 25.8659 29.8407 25.2432 31.1347ZM26.7234 27.1208L23.2566 25.2526L27.5789 20.2939C27.5828 20.42 27.5867 20.581 27.5867 20.7731C27.5847 21.9623 27.4703 24.3388 26.7234 27.1208Z"
        fill="#303333" />
</svg>