<svg xmlns="http://www.w3.org/2000/svg" width="30" height="40" viewBox="0 0 30 40"
    fill="none">
    <path
        d="M23.2829 2.20649C20.1511 0.429826 16.7031 0.243896 15.3768 0.243896C15.2074 0.243896 15.0731 0.248028 14.9781 0.250094C14.883 0.245963 14.7467 0.243896 14.5752 0.243896C13.251 0.243896 9.80301 0.429826 6.66906 2.20649C3.53511 3.98109 0.727562 7.37328 0.731694 13.7073C0.731694 13.8891 0.73376 14.075 0.739957 14.263C0.810198 17.1263 1.58904 25.2866 8.82791 33.8063C13.0361 38.7603 14.9615 39.7458 14.9822 39.7561V39.754C15.007 39.7416 16.92 38.7541 21.1241 33.8063C28.363 25.2866 29.1397 17.1263 29.212 14.263C29.2162 14.075 29.2182 13.8912 29.2182 13.7073C29.2244 7.37121 26.4169 3.98109 23.2829 2.20649ZM28.9807 13.7073L25.3571 8.14799L24.0329 2.95847C26.733 4.81571 28.9765 8.04056 28.9807 13.7073ZM21.1964 33.3477L19.2627 31.6599L25.1794 27.5198C24.1548 29.3957 22.8512 31.3603 21.1964 33.3477ZM14.976 39.314L11.0281 31.6971L14.976 29.3419L18.9239 31.6971L14.976 39.314ZM6.26621 2.72916L10.6624 4.24346L9.34645 7.91454L4.87793 8.00957L6.2187 2.76015C6.23316 2.74982 6.24968 2.73949 6.26621 2.72916ZM14.976 0.617822L18.9239 4.13397L14.976 6.01392L11.0281 4.13397L14.976 0.617822ZM23.7354 2.76015L25.0741 8.00957L20.6056 7.91454L19.2896 4.24346L23.6858 2.72916C23.7023 2.73949 23.7188 2.74982 23.7354 2.76015ZM14.6868 6.13994L9.63361 7.82364L10.8855 4.33023L14.6868 6.13994ZM19.0665 4.33023L20.3184 7.82364L15.2652 6.13994L19.0665 4.33023ZM14.976 28.9907L9.29894 23.7537L7.23511 14.0916L9.52825 8.1108L14.9739 6.29489L20.4217 8.1108L22.7148 14.0916L20.651 23.7537L14.976 28.9907ZM22.878 14.4779L25.103 19.6467L20.9568 23.4728L22.878 14.4779ZM20.6965 8.15625L25.0947 8.25128L22.8429 13.7548L20.6965 8.15625ZM7.11116 13.7527L4.85934 8.24922L9.25762 8.15419L7.11116 13.7527ZM7.07604 14.4779L8.99732 23.4728L4.85108 19.6467L7.07604 14.4779ZM4.82216 19.9483L9.08202 23.8777L10.681 31.3624L4.71886 27.1914L4.82216 19.9483ZM9.38777 24.1586L14.8107 29.1622L10.9475 31.4657L9.38777 24.1586ZM20.5663 24.1586L19.0066 31.4657L15.1433 29.1622L20.5663 24.1586ZM20.8721 23.8777L25.1319 19.9463L25.2352 27.1893L19.2751 31.3603L20.8721 23.8777ZM25.2683 19.4236L22.9731 14.0936L22.9689 14.0812L25.2724 8.45374L28.9724 14.1329L25.2683 19.4236ZM4.68168 8.45167L6.98514 14.0792L6.97894 14.0957L4.68581 19.4236L0.981666 14.1308L4.68168 8.45167ZM4.52673 19.6137L1.94437 20.5598C1.23371 17.9465 1.03951 15.8414 0.987864 14.5605L4.52673 19.6137ZM4.58458 19.8471L4.48335 26.9827C3.31199 24.7474 2.53108 22.6464 2.00841 20.7912L4.58458 19.8471ZM10.6893 31.6599L8.75561 33.3477C7.10083 31.3603 5.79726 29.3957 4.77051 27.5198L10.6893 31.6599ZM25.3695 19.8471L27.9436 20.7892C27.423 22.6443 26.6421 24.7453 25.4707 26.9806L25.3695 19.8471ZM25.4273 19.6137L28.9641 14.5605C28.9146 15.8414 28.7204 17.9465 28.0076 20.5598L25.4273 19.6137ZM23.1652 2.41308C23.252 2.46266 23.3387 2.51224 23.4234 2.56596L19.1677 4.03067L15.1847 0.481474C15.2425 0.481474 15.3065 0.479408 15.3768 0.479408C16.6804 0.481474 20.0932 0.66947 23.1652 2.41308ZM6.78888 2.41308C9.86086 0.667404 13.2737 0.479408 14.5773 0.481474C14.6475 0.481474 14.7116 0.481474 14.7694 0.48354L10.7843 4.03067L6.52858 2.56596C6.61535 2.51431 6.70212 2.46266 6.78888 2.41308ZM5.92121 2.95847L4.59697 8.14799L0.973403 13.7073C0.975469 8.04056 3.21903 4.81571 5.92121 2.95847ZM9.00971 33.6514C8.97666 33.6121 8.9436 33.5729 8.90848 33.5316L10.836 31.8479L14.693 39.2892C13.941 38.7645 12.0962 37.2832 9.00971 33.6514ZM16.3271 38.4525C15.8499 38.8636 15.4945 39.1322 15.2528 39.2995L19.116 31.8499L21.0435 33.5336C21.0105 33.575 20.9774 33.6142 20.9423 33.6535C18.8454 36.1222 17.3229 37.5952 16.3271 38.4525Z"
        fill="#303333" />
</svg>