<svg xmlns="http://www.w3.org/2000/svg" width="40" height="40" viewBox="0 0 40 40"
    fill="none">
    <path
        d="M0.609741 0.243896V19.9731V39.7561H20.092H39.5057V0.243896H0.609741ZM20.0235 39.4382H1.39959L7.06306 36.4157H20.0235H33.0548L38.7159 39.4382H20.0235ZM29.2914 3.89727L20.0577 4.66756L10.824 3.89727H20.0235H29.2914ZM33.1111 6.06875L21.3709 4.87542L32.9472 3.91194L33.1111 6.06875ZM34.3435 21.7387L35.5907 33.359L33.4534 33.5767L34.3435 21.7387ZM33.4534 6.42089L35.5907 6.63853L34.3435 18.2565L33.4534 6.42089ZM34.1577 20L33.1355 33.6084L20.0602 34.9387L6.98481 33.6084L5.96264 20L6.98481 6.3891L20.0602 5.05882L33.1355 6.3891L34.1577 20ZM20.0235 36.1003H10.824L20.0577 35.33L29.2939 36.1003H20.0235ZM7.00681 33.9288L18.747 35.1221L7.16821 36.088L7.00681 33.9288ZM32.9472 36.088L21.3684 35.1221L33.1086 33.9288L32.9472 36.088ZM5.77435 18.2589L4.52722 6.64097L6.66446 6.42333L5.77435 18.2589ZM5.6423 20L4.49787 30.6496L4.4563 19.9976L4.49787 9.34554L5.6423 20ZM5.77435 21.7387L6.66202 33.5742L4.52477 33.3566L5.77435 21.7387ZM18.747 4.87542L7.00681 6.06875L7.17065 3.9095L18.747 4.87542ZM6.68647 6.10054L4.43674 6.32796L1.31156 0.872355L6.85765 3.83125L6.68647 6.10054ZM4.43918 33.6671L6.68647 33.897L6.85765 36.1687L1.31401 39.1276L4.43918 33.6671ZM33.2602 36.1663L33.4314 33.8946L35.6787 33.6671L38.8039 39.1252L33.2602 36.1663ZM35.6176 30.6496L34.4756 20L35.6176 9.34799L35.6591 20.0098L35.6176 30.6496ZM35.6787 6.33041L33.4314 6.10299L33.2602 3.83125L38.8063 0.872355L35.6787 6.33041ZM38.7159 0.559349L33.0524 3.58182H20.092H7.06306L1.39959 0.559349H38.7159ZM0.927638 0.833229L4.19465 6.53826L4.14329 19.9902V20.0049V20.0073L4.19465 33.4593L0.927638 39.1643V19.9731V0.833229ZM39.1903 39.1643L35.9232 33.4568L35.9746 19.9902L35.9232 6.53826L39.1903 0.833229V20.0244V39.1643Z"
        fill="#303333" />
</svg>