<svg xmlns="http://www.w3.org/2000/svg" width="41" height="40" viewBox="0 0 41 40"
    fill="none">
    <path
        d="M40.8736 20.0089V7.89396L32.9717 0.243896H20.8746H8.77998L0.878052 7.89396V20.0089V32.106L8.77998 39.7561H20.8746H32.9691L40.8711 32.106V20.0089H40.8736ZM37.0804 20.0089V29.361C37.0193 29.1981 36.9481 29.0124 36.8667 28.8013C36.0195 26.5701 34.2768 21.8763 33.829 19.9987C34.1242 18.7521 34.9968 16.2564 35.7956 14.071C36.1976 12.9694 36.5817 11.9467 36.8667 11.1987C36.9456 10.9901 37.0168 10.8019 37.0804 10.639V20.0089ZM31.1883 36.1562L37.233 30.2336L40.4691 32.0526L32.9234 39.3567L31.1883 36.1562ZM20.8746 32.8921L20.8644 32.854L20.8746 32.8209L20.8847 32.854L20.8746 32.8921ZM8.82577 39.3567L1.28002 32.0526L4.51609 30.231L10.5608 36.1537L8.82577 39.3567ZM20.8746 0.561907H32.6689L30.9466 3.73947H20.8822V4.00151H30.5599C28.4636 4.78255 26.1103 5.50761 24.2429 6.04696C22.4366 6.56849 21.0934 6.91703 20.8746 6.973C20.6532 6.91703 19.3125 6.56849 17.5062 6.04696C15.6414 5.50761 13.2881 4.78 11.1892 4.00151H20.8669V3.73947H10.8025L9.08018 0.564452L20.8746 0.561907ZM20.8746 32.6835C16.8753 31.5362 13.4738 30.8671 10.828 30.4778L8.18975 20.0013L10.828 9.52218C13.4738 9.13293 16.8753 8.46384 20.8746 7.31645C24.8739 8.46384 28.2753 9.13293 30.9212 9.52218L33.5594 19.9987L30.9212 30.4753C28.2753 30.8671 24.8739 31.5362 20.8746 32.6835ZM10.5761 35.8026L4.85954 30.2031C5.59479 30.2107 7.5868 30.2768 10.5888 30.7093L10.5761 35.8026ZM4.7298 29.9385C5.14703 28.8547 7.32985 23.1483 8.05237 20.533L10.5456 30.4371C7.37819 29.9843 5.34292 29.9385 4.7298 29.9385ZM20.8746 7.10784L20.8847 7.146L20.8746 7.17907L20.8644 7.146L20.8746 7.10784ZM30.8983 9.25505C28.3364 8.87598 25.0723 8.23487 21.246 7.14854C22.5206 6.81527 27.1712 5.56358 30.911 4.14907L30.8983 9.25505ZM10.8509 9.25505L10.8381 4.15161C14.5805 5.56612 19.2285 6.81527 20.5031 7.15109C16.6768 8.23233 13.4128 8.87344 10.8509 9.25505ZM10.5761 4.19741L10.5888 9.29067C7.5868 9.72316 5.59733 9.78931 4.85954 9.79694L10.5761 4.19741ZM10.5456 9.56288L8.05237 19.467C7.32985 16.8517 5.14703 11.1453 4.7298 10.0615C5.34292 10.0615 7.37819 10.0157 10.5456 9.56288ZM31.173 35.8026L31.1603 30.7093C34.1623 30.2768 36.1518 30.2107 36.887 30.2031L31.173 35.8026ZM31.2035 30.4371L33.6968 20.533C34.4193 23.1483 36.6021 28.8521 37.0193 29.9385C36.4062 29.9385 34.3735 29.9843 31.2035 30.4371ZM33.6968 19.4696L31.2035 9.56543C34.3735 10.0183 36.4087 10.0615 37.0193 10.0641C36.6021 11.1478 34.4193 16.8542 33.6968 19.4696ZM31.1603 9.29321L31.173 4.19995L36.8896 9.79948C36.1518 9.79185 34.1623 9.72316 31.1603 9.29321ZM10.5634 3.84378L4.51609 9.76641L1.28002 7.94739L8.82577 0.643318L10.5634 3.84378ZM4.67128 10.639C4.73234 10.8019 4.80358 10.9901 4.88499 11.1987C5.73217 13.4299 7.47741 18.1237 7.92008 20.0013C7.62497 21.2479 6.75235 23.7436 5.9535 25.929C5.55154 27.0306 5.16738 28.0533 4.88244 28.8013C4.80358 29.0099 4.73234 29.1981 4.66874 29.361V10.639H4.67128ZM10.8509 30.7475C13.4102 31.1266 16.6768 31.7677 20.5031 32.8514C19.2285 33.1873 14.5805 34.4364 10.8381 35.8509L10.8509 30.7475ZM30.8983 30.7475L30.911 35.8509C27.1686 34.4364 22.5206 33.1873 21.246 32.8514C25.0723 31.7677 28.3364 31.1266 30.8983 30.7475ZM37.233 9.76641L31.1883 3.84378L32.9259 0.640774L40.4717 7.94484L37.233 9.76641ZM1.19606 20.0089V8.2018L4.4067 10.0081V20.0089V29.9919L1.19606 31.7982V20.0089ZM9.08018 39.4381L10.8025 36.2631H20.8669V35.9985H11.1918C13.2881 35.2174 15.6414 34.4924 17.5062 33.953C19.3099 33.429 20.6532 33.083 20.8746 33.027C21.0934 33.083 22.4366 33.4315 24.2429 33.953C26.1077 34.4924 28.461 35.22 30.5599 35.9985H20.8822V36.2631H30.9466L32.6689 39.4381H9.08018ZM40.5531 31.7982L37.3424 29.9919V19.9911V10.0081L40.5531 8.2018V20.0089V31.7982Z"
        fill="#303333" />
</svg>