<svg xmlns="http://www.w3.org/2000/svg" width="40" height="40" viewBox="0 0 40 40"
fill="none">
<path
    d="M39.7561 20C39.7561 9.0893 30.9107 0.243896 20 0.243896C9.08932 0.243896 0.243912 9.0893 0.243912 20C0.243912 30.9107 9.08932 39.7561 20 39.7561C30.9131 39.7537 39.7561 30.9107 39.7561 20ZM9.36581 19.5432L7.32697 14.6793L12.2005 12.7462L9.36581 19.5432ZM9.1927 19.9591L7.12981 24.9096L0.784878 19.9976L7.07452 14.9029L9.1927 19.9591ZM9.43553 20.2116L12.7823 27.2706L7.36303 25.1837L9.43553 20.2116ZM13.2055 27.4221L9.59903 19.8149L12.614 12.5851L20 9.65672L27.386 12.5851L30.401 19.8173L26.7945 27.4245L26.7897 27.4365L20 30.0524L13.2103 27.4365L13.2055 27.4221ZM25.1572 7.23799L27.2153 12.174L20.3679 9.45956L25.1572 7.23799ZM20 9.27443L15.0111 6.9615L20 0.657435L24.9889 6.9615L20 9.27443ZM14.8428 7.23799L19.6322 9.45716L12.7871 12.1716L14.8428 7.23799ZM32.6394 25.1813L27.2201 27.2682L30.5645 20.2092L32.6394 25.1813ZM32.8702 24.9096L30.8073 19.9591L32.9279 14.9029L39.2175 19.9976L32.8702 24.9096ZM30.6342 19.5456L27.7995 12.7486L32.6731 14.6817L30.6342 19.5456ZM25.1452 32.4999L20.3631 30.2519L26.6647 27.826L25.1452 32.4999ZM19.6394 30.2519L14.8572 32.4975L13.3377 27.8236L19.6394 30.2519ZM20 30.4346L24.9913 32.7788L20 39.2175L15.0087 32.7764L20 30.4346ZM27.047 27.6769L32.7139 25.4938L33.6011 33.5482L25.453 32.5841L27.047 27.6769ZM39.4339 20.2308C39.4027 22.777 38.8857 25.2053 37.9649 27.4269L33.1948 25.061L39.4339 20.2308ZM33.1227 14.648L38.0803 12.8448C38.929 14.9894 39.4075 17.3216 39.4363 19.762L33.1227 14.648ZM32.7283 14.3571L27.6288 12.3351L25.4698 7.15625L33.4448 6.32196L32.7283 14.3571ZM25.4866 6.83648L27.4004 2.02308C29.6773 2.96075 31.7354 4.31918 33.4809 5.99978L25.4866 6.83648ZM25.1957 6.70664L20.3342 0.566073C22.7217 0.606946 25.0033 1.07578 27.1047 1.90046L25.1957 6.70664ZM14.8067 6.70664L12.8977 1.90046C15.0015 1.07338 17.2808 0.604541 19.6682 0.566073L14.8067 6.70664ZM14.5134 6.83648L6.51912 5.99978C8.26464 4.31918 10.3251 2.96075 12.5996 2.02308L14.5134 6.83648ZM14.5302 7.15865L12.3712 12.3375L7.27407 14.3595L6.55759 6.32436L14.5302 7.15865ZM0.566087 19.762C0.594939 17.3216 1.07339 14.9894 1.92211 12.8448L6.87977 14.648L0.566087 19.762ZM6.80283 25.061L2.03271 27.4269C1.11427 25.2053 0.594939 22.777 0.563683 20.2308L6.80283 25.061ZM7.2885 25.4962L12.9554 27.6793L14.5495 32.5865L6.40372 33.5506L7.2885 25.4962ZM14.4846 32.9135L12.0779 37.7533C9.95246 36.8036 8.02902 35.4837 6.38689 33.8728L14.4846 32.9135ZM14.7899 33.0193L19.762 39.4315C17.1413 39.4003 14.6456 38.8497 12.3712 37.8783L14.7899 33.0193ZM25.2101 33.0193L27.6288 37.8807C25.3568 38.8521 22.8587 39.4003 20.238 39.4339L25.2101 33.0193ZM25.5155 32.9135L33.6131 33.8728C31.9734 35.4813 30.05 36.8036 27.9246 37.7533L25.5155 32.9135ZM33.0169 25.3255L37.8423 27.7202C36.8974 29.9033 35.5606 31.8796 33.9233 33.5602L33.0169 25.3255ZM37.9577 12.5491L33.0505 14.3331L33.7694 6.27868C35.5462 8.06267 36.9767 10.1881 37.9577 12.5491ZM6.23301 6.28108L6.9519 14.3355L2.04232 12.5491C3.02328 10.1881 4.45383 8.06267 6.23301 6.28108ZM2.16014 27.7202L6.98556 25.3255L6.07914 33.5602C4.44181 31.8796 3.10502 29.9033 2.16014 27.7202Z"
    fill="#303333" />
</svg>